<svg xmlns="http://www.w3.org/2000/svg" viewBox="0 0 1440 320"><path fill="#f3f4f5" fill-opacity="1" d="M0,64L26.7,96C53.3,128,107,192,160,192C213.3,192,267,128,320,85.3C373.3,43,427,21,480,16C533.3,11,587,21,640,32C693.3,43,747,53,800,58.7C853.3,64,907,64,960,106.7C1013.3,149,1067,235,1120,229.3C1173.3,224,1227,128,1280,96C1333.3,64,1387,96,1413,112L1440,128L1440,320L1413.3,320C1386.7,320,1333,320,1280,320C1226.7,320,1173,320,1120,320C1066.7,320,1013,320,960,320C906.7,320,853,320,800,320C746.7,320,693,320,640,320C586.7,320,533,320,480,320C426.7,320,373,320,320,320C266.7,320,213,320,160,320C106.7,320,53,320,27,320L0,320Z"></path></svg>