<?xml version="1.0" encoding="UTF-8"?>
<svg version="1.1" xmlns="http://www.w3.org/2000/svg" width="500" height="500">
<path d="M0 0 C165 0 330 0 500 0 C500 165 500 330 500 500 C335 500 170 500 0 500 C0 335 0 170 0 0 Z " fill="#FEFEFE" transform="translate(0,0)"/>
<path d="M0 0 C5.54008682 3.2378496 10.04564381 8.11362557 12.49609375 14.078125 C12.81986112 16.30022072 13.08490892 18.53123474 13.30859375 20.765625 C14.38540581 28.73403421 16.38354547 35.00164999 22.93359375 40.015625 C27.79119113 43.04252187 32.06445774 44.07277057 37.74609375 44.328125 C45.2237168 44.89940316 50.75780063 48.33983188 55.99609375 53.578125 C58.81645588 58.27872855 59.70962043 62.99986516 60.30859375 68.390625 C61.44204446 76.03705785 63.6389611 82.21109344 69.93359375 87.015625 C74.81898162 90.30001829 80.10974833 91.24222547 85.87109375 91.828125 C93.80789178 92.98651742 98.06550989 95.96199185 102.93359375 102.203125 C105.70600067 107.30435373 106.25614518 112.34644302 105.49609375 118.078125 C103.30976016 125.17037785 99.89222553 129.21833913 93.58203125 133.01953125 C87.73438443 135.98715726 81.95801591 135.87094739 75.80859375 133.890625 C69.19453146 130.27160979 64.7913944 126.30770833 62.49609375 119.078125 C62.27460267 117.27150503 62.11042223 115.45717751 61.99609375 113.640625 C61.49513289 105.93435478 59.33732374 100.44152662 53.62109375 95.140625 C48.71969958 90.94368222 43.46323708 89.96336315 37.18359375 89.265625 C29.65725288 88.14139392 23.31666953 86.05880793 18.62109375 79.765625 C16.05623935 75.17680386 15.4844538 70.13346621 14.64990234 65.01904297 C13.38028219 57.6149517 11.13856675 51.83587299 5.12109375 47.140625 C0.1874197 44.05309995 -4.70327383 43.10780721 -10.44140625 42.765625 C-17.61194937 42.12364921 -22.23307864 38.73182009 -26.94140625 33.453125 C-31.16843738 28.36225917 -30.96577608 23.07694346 -30.90625 16.66796875 C-30.19235001 10.29831734 -27.26034085 6.78351451 -22.81640625 2.421875 C-16.50838166 -2.47228201 -7.33345547 -2.69999296 0 0 Z " fill="#D672D0" transform="translate(212.50390625,153.921875)"/>
<path d="M0 0 C5.73114865 3.31496174 9.36232008 8.07479419 11.91796875 14.109375 C12.4375 17.40625 12.4375 17.40625 12.73046875 20.859375 C13.73865923 28.55902323 15.84094054 34.56813695 21.8203125 39.76171875 C27.39848336 43.34545981 33.13365749 43.77806507 39.60546875 44.53125 C47.04394727 45.82947503 51.61553638 50.16189495 55.91796875 56.109375 C58.77601118 60.89961512 58.49857243 65.68550767 57.91796875 71.109375 C56.1883502 77.75856727 52.71718427 82.43211776 46.91796875 86.109375 C41.36273161 88.77662462 35.97015122 88.87179279 29.91796875 88.109375 C23.66787084 85.72204252 18.74974883 80.92897568 15.86328125 74.91015625 C14.90950423 72.08429622 14.41364223 69.3320097 13.98168945 66.38574219 C12.74751569 58.16816185 11.11382979 52.16745625 4.3125 46.85546875 C-0.16989536 44.17394746 -4.99919157 43.55415029 -10.08203125 42.734375 C-17.60030934 41.50577413 -22.54034079 39.4346253 -27.40625 33.4921875 C-31.86598528 27.20161352 -31.86610879 20.56251654 -31.08203125 13.109375 C-28.63527431 6.63206823 -24.04276374 2.99347749 -18.33203125 -0.640625 C-12.17290852 -3.00951836 -6.05807562 -2.56349707 0 0 Z " fill="#CA4DDF" transform="translate(213.08203125,200.890625)"/>
<path d="M0 0 C5.36230173 2.31883318 9.12277043 6.07623033 11.5234375 11.375 C12.57601033 15.30955206 13.33965903 19.29765253 13.96777344 23.32055664 C15.19015115 30.58896843 17.88388863 36.53928264 23.7734375 41.1875 C27.96963018 43.60591639 32.30751369 44.11497112 37.0234375 44.8125 C44.74951804 45.95624253 49.77227496 47.7803808 54.84375 53.9921875 C58.97858733 59.80409172 59.18511386 65.4746608 58.5234375 72.375 C56.7575885 78.60865974 52.84149379 82.82962914 47.5234375 86.375 C41.71169068 89.15453109 35.61226353 88.99276521 29.3984375 87.75 C23.44551307 84.90294919 19.04502346 80.87315391 16.27734375 74.83984375 C15.32341881 71.72105289 15.00767517 68.67761454 14.6484375 65.4375 C13.69977779 57.79915369 11.39237943 53.10609365 5.87890625 47.7890625 C0.51369456 43.74469813 -5.40145629 43.65145275 -11.90625 42.953125 C-18.2863769 41.92001911 -21.77737078 39.03643191 -26.2890625 34.625 C-29.72387753 29.52184624 -31.92476401 24.43300816 -31.3515625 18.1875 C-29.86655168 11.71709569 -27.44679709 7.76730033 -22.4765625 3.375 C-21.6721875 2.611875 -20.8678125 1.84875 -20.0390625 1.0625 C-13.80165383 -1.892062 -6.65627332 -1.67981661 0 0 Z " fill="#F298BF" transform="translate(259.4765625,153.625)"/>
<path d="M0 0 C5.79189435 3.33370663 10.40382965 8.82477019 12.515625 15.16015625 C13.14587682 22.85509122 11.92092682 29.25505911 7.17578125 35.48046875 C2.29083308 40.4228869 -3.70957447 42.4639302 -10.546875 42.84765625 C-16.80925564 42.54983095 -21.00683614 40.50950381 -25.484375 36.16015625 C-30.66805766 29.55935171 -32.35256308 23.50716448 -31.484375 15.16015625 C-29.44315455 8.16344277 -24.69953525 3.82670328 -18.6875 0.0234375 C-13.10289543 -2.16485613 -5.63385313 -1.90452582 0 0 Z " fill="#FBB1A6" transform="translate(305.484375,153.83984375)"/>
<path d="M0 0 C5.29126466 3.90519533 9.16858884 8.28560179 10.5625 14.875 C11.31205297 21.72476102 10.71493649 27.23349736 6.5625 32.875 C2.55895183 37.05503869 -1.52033905 40.50842554 -7.390625 41.24609375 C-14.79518059 41.39523764 -19.84024289 40.94171142 -25.4375 35.875 C-30.61784491 30.80091858 -32.72815963 25.84724284 -32.9375 18.625 C-32.83064423 11.88545388 -31.0610757 7.74026261 -26.4375 2.875 C-19.54428713 -3.19035152 -8.01958164 -4.76592281 0 0 Z " fill="#8625F5" transform="translate(214.4375,248.125)"/>
<path d="M0 0 C3.61010155 2.53475215 4.76871396 4.20495424 6 8.4375 C6 12.55333147 5.29147823 14.60229091 3 18 C-0.15515999 20.39356965 -3.13146779 20.32237768 -7 20 C-10.85831786 18.75172069 -12.93251709 16.44580485 -15 13 C-14.91491651 8.23532454 -13.90111922 4.79377128 -11 1 C-7.27252432 -0.24249189 -3.86637557 -0.65570112 0 0 Z " fill="#E2ABDB" transform="translate(353,211)"/>
<path d="M0 0 C2.74929164 1.92393494 4.48722436 4.00949372 6 7 C6.31490197 11.48735314 5.29222651 14.08732508 2.4375 17.4375 C-0.00570471 19.62816192 -1.78090231 20.44476073 -5.0625 20.625 C-9.52023765 19.91742259 -11.20788952 19.55359515 -14 16 C-14.69998553 12.66723307 -14.92862165 9.40020526 -15 6 C-14.34 6 -13.68 6 -13 6 C-12.9175 5.38125 -12.835 4.7625 -12.75 4.125 C-12 2 -12 2 -10.4375 0.75 C-6.84733904 -0.35466491 -3.65222893 -0.90781981 0 0 Z " fill="#D0B1E6" transform="translate(156,211)"/>
<path d="M0 0 C7.93949219 0.99636956 13.42088665 4.74960516 18.3125 11 C22.06937714 17.05679361 22.34382297 24.11140753 22.875 31.0625 C22.215 31.0625 21.555 31.0625 20.875 31.0625 C20.545 31.7225 20.215 32.3825 19.875 33.0625 C19.70484375 31.98871094 19.5346875 30.91492188 19.359375 29.80859375 C19.11529465 28.37227477 18.87046271 26.93608338 18.625 25.5 C18.46064453 24.44329102 18.46064453 24.44329102 18.29296875 23.36523438 C17.22800889 17.28375307 15.41937511 12.33928486 10.68359375 8.1015625 C4.41576811 4.36358411 -0.83249956 3.09022814 -8.125 3.0625 C-5.61710721 -0.11803953 -3.96680385 -0.32209091 0 0 Z " fill="#FBEDF5" transform="translate(253.125,195.9375)"/>
<path d="M0 0 C2 2 2 2 2.3125 5.4375 C2 9 2 9 0.9375 10.9375 C-2.07884711 12.59162584 -4.63666608 12.30575763 -8 12 C-10 10 -10 10 -10.3125 6.5625 C-10 3 -10 3 -8.9375 1.0625 C-5.92115289 -0.59162584 -3.36333392 -0.30575763 0 0 Z " fill="#D0A6E3" transform="translate(254,113)"/>
<path d="M0 0 C3.9975 1.5375 3.9975 1.5375 5.4375 3.9375 C5.10416667 10.27083333 5.10416667 10.27083333 2.4375 12.9375 C-0.66597254 13.26765665 -2.72031176 13.44281294 -5.4375 11.8125 C-7.11718045 9.01303259 -7.01992277 7.13945936 -6.5625 3.9375 C-4.52400194 0.99300281 -3.64513466 -0.08890572 0 0 Z " fill="#FEF0DE" transform="translate(285.5625,356.0625)"/>
<path d="M0 0 C2.875 0.9375 2.875 0.9375 4.875 3.9375 C5.20002803 7.05776907 5.38651479 9.08497535 3.75 11.8125 C0.96393958 13.48413625 -0.94488862 13.40126624 -4.125 12.9375 C-6.4401023 10.85390793 -7.02776165 9.49314772 -7.5625 6.4375 C-7.125 3.9375 -7.125 3.9375 -5.5 1.5625 C-3.125 -0.0625 -3.125 -0.0625 0 0 Z " fill="#FEF0DE" transform="translate(258.125,356.0625)"/>
<path d="M0 0 C2.92743134 2.24228783 4.58605983 3.82186261 5.8125 7.3125 C5.874375 7.869375 5.93625 8.42625 6 9 C3 9 3 9 0 7 C-0.33 7.66 -0.66 8.32 -1 9 C-2.65 8.67 -4.3 8.34 -6 8 C-6.33 7.01 -6.66 6.02 -7 5 C-9.97 7.475 -9.97 7.475 -13 10 C-13.66 9.67 -14.32 9.34 -15 9 C-12.59519038 2.50701403 -12.59519038 2.50701403 -10.3125 0.5625 C-6.80687053 -0.29022068 -3.54116583 -0.69558614 0 0 Z " fill="#CDD0E8" transform="translate(353,211)"/>
<path d="M0 0 C1.87810532 3.24610796 2.37582741 6.04548092 2.8125 9.75 C3.71167462 15.37842128 4.98108842 19.83000151 9 24 C11.55358426 25.69562056 14.16411322 26.86113493 17 28 C18.33841489 28.65640522 19.67323093 29.32036328 21 30 C20.34 30 19.68 30 19 30 C19 30.66 19 31.32 19 32 C12.59809023 31.00815482 7.21687339 28.02205854 3.34375 22.7421875 C0.31360073 17.40419199 -1.14338115 13.03268679 -1.125 6.875 C-1.12757813 6.00617188 -1.13015625 5.13734375 -1.1328125 4.2421875 C-1 2 -1 2 0 0 Z " fill="#F8EEFA" transform="translate(226,213)"/>
<path d="M0 0 C1.65 1.65 3.3 3.3 5 5 C4.3125 6.9375 4.3125 6.9375 3 9 C-0.57673017 10.25668898 -3.40159447 10.1072017 -7 9 C-9.3125 7.4375 -9.3125 7.4375 -11 6 C-10.67 5.34 -10.34 4.68 -10 4 C-8.515 4.99 -8.515 4.99 -7 6 C-7.99 4.35 -8.98 2.7 -10 1 C-9.401875 1.165 -8.80375 1.33 -8.1875 1.5 C-5.88655664 2.1114124 -5.88655664 2.1114124 -3 2 C-2.01 1.34 -1.02 0.68 0 0 Z " fill="#E7ABD8" transform="translate(153,221)"/>
<path d="M0 0 C2.43308979 2.04891772 4.2282765 4.36925904 6 7 C5.38253906 7.14953125 4.76507813 7.2990625 4.12890625 7.453125 C1.99001172 7.9658118 1.99001172 7.9658118 -0.0625 8.75 C-1.0215625 8.87375 -1.0215625 8.87375 -2 9 C-3.5 7.625 -3.5 7.625 -5 6 C-6.0209375 5.7834375 -6.0209375 5.7834375 -7.0625 5.5625 C-9 5 -9 5 -10.25 2.9375 C-10.62125 1.9784375 -10.62125 1.9784375 -11 1 C-7.25369332 -0.24876889 -3.86099254 -0.93071007 0 0 Z " fill="#CDBEE6" transform="translate(156,211)"/>
<path d="M0 0 C0.66 0 1.32 0 2 0 C2.25652344 0.65226563 2.51304687 1.30453125 2.77734375 1.9765625 C5.7517003 8.76650775 8.977342 13.18884672 16 16 C20.01398691 16.71885102 23.92565116 16.98621202 28 17 C27.67 17.99 27.34 18.98 27 20 C19.26453079 20.41440014 13.47717366 19.15492008 7.25 14.375 C3.47778208 10.9394331 1.54929334 6.81146999 0 2 C0 1.34 0 0.68 0 0 Z " fill="#FDF1F3" transform="translate(273,179)"/>
<path d="M0 0 C3.96586925 3.63608481 6.20269187 7.33030279 6.83203125 12.6796875 C5.84203125 13.0096875 4.85203125 13.3396875 3.83203125 13.6796875 C3.48140625 12.4834375 3.13078125 11.2871875 2.76953125 10.0546875 C0.71448998 4.53543379 -3.09962942 1.50171168 -8.0625 -1.4453125 C-10.55744953 -2.48217464 -12.72909806 -2.73303323 -15.41796875 -2.9453125 C-16.31 -3.02007812 -17.20203125 -3.09484375 -18.12109375 -3.171875 C-19.13429687 -3.24535156 -19.13429687 -3.24535156 -20.16796875 -3.3203125 C-20.16796875 -3.6503125 -20.16796875 -3.9803125 -20.16796875 -4.3203125 C-11.82492413 -5.61492287 -6.77572497 -5.41539778 0 0 Z " fill="#F1E2FB" transform="translate(220.16796875,249.3203125)"/>
<path d="M0 0 C0.7425 0.515625 1.485 1.03125 2.25 1.5625 C4.83215454 3.24942772 4.83215454 3.24942772 7.3125 2.6875 C7.869375 2.460625 8.42625 2.23375 9 2 C9.99 3.485 9.99 3.485 11 5 C13.56282742 5.72965366 13.56282742 5.72965366 16 6 C15.01 7.485 15.01 7.485 14 9 C10.10039224 9.42387041 7.24065622 9.26845936 4 7 C0 2.55555556 0 2.55555556 0 0 Z " fill="#EFA4CA" transform="translate(338,222)"/>
<path d="M0 0 C1.134375 0.020625 2.26875 0.04125 3.4375 0.0625 C3.4375 0.7225 3.4375 1.3825 3.4375 2.0625 C1.4575 2.0625 -0.5225 2.0625 -2.5625 2.0625 C-2.5625 3.3825 -2.5625 4.7025 -2.5625 6.0625 C-0.9125 6.0625 0.7375 6.0625 2.4375 6.0625 C2.4375 6.3925 2.4375 6.7225 2.4375 7.0625 C0.7875 7.0625 -0.8625 7.0625 -2.5625 7.0625 C-2.5625 8.7125 -2.5625 10.3625 -2.5625 12.0625 C-0.5825 12.0625 1.3975 12.0625 3.4375 12.0625 C3.4375 12.3925 3.4375 12.7225 3.4375 13.0625 C0.7975 13.0625 -1.8425 13.0625 -4.5625 13.0625 C-4.58936553 11.08340602 -4.60883375 9.10421029 -4.625 7.125 C-4.63660156 6.02285156 -4.64820313 4.92070312 -4.66015625 3.78515625 C-4.51237367 -0.33502211 -4.25789233 0.07469987 0 0 Z " fill="#FCDEB6" transform="translate(198.5625,355.9375)"/>
<path d="M0 0 C1.32 0.66 2.64 1.32 4 2 C4 2.99 4 3.98 4 5 C3.01 5.66 2.02 6.32 1 7 C-0.32 6.34 -1.64 5.68 -3 5 C-2.01 6.32 -1.02 7.64 0 9 C-0.99 9 -1.98 9 -3 9 C-6 4.77777778 -6 4.77777778 -6 2 C-4.7934375 1.7834375 -4.7934375 1.7834375 -3.5625 1.5625 C-1.07896294 1.25864751 -1.07896294 1.25864751 0 0 Z " fill="#D595D9" transform="translate(147,218)"/>
<path d="M0 0 C0.33 0 0.66 0 1 0 C1 1.65 1 3.3 1 5 C3.31 5 5.62 5 8 5 C8 3.35 8 1.7 8 0 C8.66 0 9.32 0 10 0 C10 3.96 10 7.92 10 12 C9.34 12 8.68 12 8 12 C8 10.02 8 8.04 8 6 C5.69 6 3.38 6 1 6 C1 7.98 1 9.96 1 12 C0.67 12 0.34 12 0 12 C0 8.04 0 4.08 0 0 Z " fill="#FCDCB0" transform="translate(221,357)"/>
<path d="M0 0 C2.01822917 0.06510417 4.03645833 0.13020833 6.0546875 0.1953125 C5.6796875 2.1328125 5.6796875 2.1328125 5.0546875 4.1953125 C2.09804231 5.6736351 -0.68760987 5.25564033 -3.9453125 5.1953125 C-3.9453125 1.81964504 -3.57781023 0.35921789 0 0 Z " fill="#E9A5D1" transform="translate(249.9453125,119.8046875)"/>
<path d="M0 0 C3.3 0 6.6 0 10 0 C10 0.66 10 1.32 10 2 C8.68 2 7.36 2 6 2 C6 5.63 6 9.26 6 13 C5.34 13 4.68 13 4 13 C4 9.37 4 5.74 4 2 C2.68 2 1.36 2 0 2 C0 1.34 0 0.68 0 0 Z " fill="#FDE4C4" transform="translate(180,356)"/>
<path d="M0 0 C0.598125 0.309375 1.19625 0.61875 1.8125 0.9375 C4.08956772 2.10209704 4.08956772 2.10209704 7 3 C6.67 4.65 6.34 6.3 6 8 C2.06830895 8 0.83572772 6.60580385 -2 4 C-2 3.34 -2 2.68 -2 2 C-1.34 1.67 -0.68 1.34 0 1 C0 0.67 0 0.34 0 0 Z " fill="#D499DD" transform="translate(352,217)"/>
<path d="M0 0 C1.67542976 0.28604898 3.34385343 0.61781233 5 1 C5 2.98 5 4.96 5 7 C3.02 7.99 3.02 7.99 1 9 C-0.76462683 5.91190305 -1 4.76687864 -1 1 C-0.67 0.67 -0.34 0.34 0 0 Z " fill="#D698DB" transform="translate(156,218)"/>
<path d="M0 0 C0.86625 0.5259375 0.86625 0.5259375 1.75 1.0625 C4.35801776 2.14917407 5.39417629 1.93065133 8 1 C8.33 1.66 8.66 2.32 9 3 C12.465 2.505 12.465 2.505 16 2 C15 4 15 4 13 6 C8.19036119 6.62059856 6.12517552 6.7032347 2 4.125 C0 2 0 2 0 0 Z " fill="#F3AECD" transform="translate(142,225)"/>
<path d="M0 0 C1.32 1.65 2.64 3.3 4 5 C2.35 6.32 0.7 7.64 -1 9 C-1.99 8.01 -2.98 7.02 -4 6 C-2.84826645 3.53199953 -1.95216435 1.95216435 0 0 Z " fill="#D396DC" transform="translate(343,217)"/>
<path d="M0 0 C1.670625 0.061875 1.670625 0.061875 3.375 0.125 C4.035 1.445 4.695 2.765 5.375 4.125 C0.49750757 5.28019558 -1.26432805 4.30533598 -5.625 2.125 C-3.625 0.125 -3.625 0.125 0 0 Z " fill="#D1CBE9" transform="translate(250.625,112.875)"/>
<path d="M0 0 C0.33 1.32 0.66 2.64 1 4 C-1.49064888 4.68707555 -3.37886292 5 -6 5 C-6.66 3.68 -7.32 2.36 -8 1 C-5.07175348 0.02391783 -3.04386724 -0.08226668 0 0 Z " fill="#CCCFE7" transform="translate(153,211)"/>
<path d="M0 0 C2.79872437 2.52788007 4.45773019 4.20411134 5 8 C2.6875 8.3125 2.6875 8.3125 0 8 C-1.8125 5.5 -1.8125 5.5 -3 3 C-2.01 2.01 -1.02 1.02 0 0 Z " fill="#C9B0E3" transform="translate(348,212)"/>
<path d="M0 0 C0.99 0.33 1.98 0.66 3 1 C2.67 4.63 2.34 8.26 2 12 C1.34 12 0.68 12 0 12 C0 8.04 0 4.08 0 0 Z " fill="#FDE3C1" transform="translate(236,357)"/>
<path d="M0 0 C9.1 5.2 9.1 5.2 11 9 C8.02230154 8.8615024 5.78173508 8.68881566 3.48828125 6.66796875 C0 2.55999284 0 2.55999284 0 0 Z " fill="#F0B2D4" transform="translate(338,222)"/>
<path d="M0 0 C0.33 0 0.66 0 1 0 C1.33 3.3 1.66 6.6 2 10 C1.34 10 0.68 10 0 10 C-0.33 10.66 -0.66 11.32 -1 12 C-1.22162329 10.37675914 -1.42689803 8.751279 -1.625 7.125 C-1.74101562 6.22007812 -1.85703125 5.31515625 -1.9765625 4.3828125 C-1.98429687 3.59648437 -1.99203125 2.81015625 -2 2 C-1.34 1.34 -0.68 0.68 0 0 Z " fill="#F6E1F2" transform="translate(274,217)"/>
<path d="M0 0 C0.99 0.33 1.98 0.66 3 1 C3.33 2.65 3.66 4.3 4 6 C3.01 6 2.02 6 1 6 C-0.6875 4 -0.6875 4 -2 2 C-1.34 1.34 -0.68 0.68 0 0 Z " fill="#D1B6E7" transform="translate(355,214)"/>
<path d="M0 0 C1.32087692 2.17556199 2.07112439 3.43100487 1.75 6 C0.96806166 8.0851689 0.00842205 10.01621892 -1 12 C-1.02698189 10.37509046 -1.04638757 8.75005367 -1.0625 7.125 C-1.07410156 6.22007812 -1.08570313 5.31515625 -1.09765625 4.3828125 C-1 2 -1 2 0 0 Z " fill="#F5D1F1" transform="translate(226,213)"/>
<path d="M0 0 C1.32 0.66 2.64 1.32 4 2 C2.71034824 3.37562854 1.37310707 4.70766393 0 6 C-0.66 6 -1.32 6 -2 6 C-1.125 1.125 -1.125 1.125 0 0 Z " fill="#D696D9" transform="translate(246,117)"/>
<path d="M0 0 C0.66 0 1.32 0 2 0 C2.6875 1.8125 2.6875 1.8125 3 4 C1.5625 5.75 1.5625 5.75 0 7 C-0.66 6.67 -1.32 6.34 -2 6 C-1.34 4.02 -0.68 2.04 0 0 Z " fill="#D3B8E8" transform="translate(340,214)"/>
</svg>
